<svg preserveAspectRatio="none" width="100%" height="100%" overflow="visible" style="display: block;" viewBox="0 0 116.676 88.59" fill="none" xmlns="http://www.w3.org/2000/svg">
<g id="Group 9">
<path id="Vector 2" d="M25.8501 74.7273C25.7898 74.6989 25.7295 74.6704 25.6692 74.6419C25.4157 75.0476 25.1674 75.4559 24.9245 75.8666C24.0136 77.407 23.1778 78.9829 22.4172 80.5943C21.3331 82.8909 20.2639 85.1945 19.2094 87.505L19.986 87.4383C17.5088 84.0081 14.9944 80.6041 12.4429 77.2262C12.1563 76.8468 11.8693 76.4678 11.5818 76.0891C11.5273 76.1274 11.4727 76.1658 11.4182 76.2041C11.6771 76.6029 11.9364 77.0014 12.1962 77.3995C14.5097 80.9447 16.8604 84.4638 19.2482 87.9567L19.7041 88.59L20.0248 87.89C21.1386 85.6073 22.2374 83.3177 23.3215 81.0211C24.0821 79.4098 24.7676 77.7629 25.3779 76.0806C25.5407 75.632 25.6981 75.1809 25.8501 74.7273Z" fill="var(--stroke-0, #444444)" fill-opacity="0.8"/>
<path id="Vector 1" d="M19.3072 87.3572C19.5212 87.3466 19.7351 87.3361 19.9491 87.3255C19.8947 85.154 19.9159 83.0044 20.0137 80.8431C20.8979 56.7205 32.7371 32.412 53.848 20.5803C66.3103 13.3982 81.0266 10.7491 95.5392 11.3955C97.7385 11.4905 99.8147 11.6401 102.021 11.867C102.051 11.6549 102.081 11.4428 102.111 11.2306C99.9143 10.8376 97.8366 10.5313 95.6228 10.2904C81.0377 8.64836 65.5732 10.8468 52.5703 18.3496C30.4884 30.7083 18.8259 56.461 19.0694 80.8213C19.0674 83.008 19.1472 85.1755 19.3072 87.3572Z" fill="var(--stroke-0, #444444)" fill-opacity="0.8"/>
</g>
</svg>
